<?xml version="1.0" encoding="UTF-8"?>
<svg id="Layer_4" data-name="Layer 4" xmlns="http://www.w3.org/2000/svg" viewBox="0 0 250 250">
  <defs>
    <style>
      .cls-1 {
        fill: #4d4d4d;
        stroke: #000;
        stroke-miterlimit: 10;
      }
    </style>
  </defs>
  <polygon class="cls-1" points="169.58 164.09 180.46 183.32 169.29 203.05 146.96 203.06 146.83 202.83 136.08 221.83 113.75 221.84 102.6 202.11 102.68 201.96 81.18 201.97 70.02 182.24 81.19 162.5 103.52 162.49 114.68 182.22 114.6 182.37 136.1 182.36 136.22 182.58 146.29 164.8 135.42 145.58 135.5 145.44 113.89 145.45 102.73 125.72 102.8 125.59 81.1 125.6 69.94 105.87 80.71 86.84 69.56 67.12 80.73 47.38 103.06 47.37 103.16 47.54 114.02 28.36 136.35 28.35 147.36 47.83 147.7 47.22 170.03 47.21 181.19 66.94 170.01 86.67 147.69 86.68 136.68 67.21 136.33 67.82 114 67.83 113.9 67.65 103.44 86.13 114.6 105.86 114.53 105.98 136.23 105.97 147.39 125.7 147.31 125.84 168.92 125.83 180.07 145.56 169.58 164.09"/>
</svg>